<svg width="324" height="92" viewBox="0 0 324 92" fill="none" xmlns="http://www.w3.org/2000/svg">
<path d="M20.2815 71.152C14.2655 71.152 9.4655 69.008 5.8815 64.72C2.2975 60.432 0.5055 54.672 0.5055 47.44C0.5055 40.208 2.2975 34.448 5.8815 30.16C9.4655 25.872 14.2655 23.728 20.2815 23.728C25.7215 23.728 30.9375 25.488 35.9295 29.008V1.84H42.8415V70H37.6575L36.8895 65.2C31.6415 69.168 26.1055 71.152 20.2815 71.152ZM21.4335 64.624C23.8655 64.624 26.3615 64.176 28.9215 63.28C31.4815 62.384 33.8175 61.136 35.9295 59.536V35.344C33.8175 33.744 31.4815 32.496 28.9215 31.6C26.3615 30.704 23.8655 30.256 21.4335 30.256C17.1455 30.256 13.7535 31.792 11.2575 34.864C8.8255 37.936 7.6095 42.128 7.6095 47.44C7.6095 52.752 8.8255 56.944 11.2575 60.016C13.7535 63.088 17.1455 64.624 21.4335 64.624ZM81.057 71.152C73.313 71.152 67.201 69.04 62.721 64.816C58.305 60.592 56.097 54.8 56.097 47.44C56.097 42.576 57.057 38.384 58.977 34.864C60.897 31.344 63.585 28.624 67.041 26.704C70.497 24.72 74.529 23.728 79.137 23.728C85.857 23.728 91.169 25.744 95.073 29.776C98.977 33.744 100.929 39.12 100.929 45.904C100.929 46.544 100.929 47.184 100.929 47.824C100.929 48.464 100.865 49.136 100.737 49.84H63.297C63.745 54.576 65.505 58.224 68.577 60.784C71.649 63.344 75.873 64.624 81.249 64.624C86.625 64.624 91.713 63.056 96.513 59.92L99.489 65.584C93.921 69.296 87.777 71.152 81.057 71.152ZM63.489 43.696H93.921C93.473 39.472 91.969 36.176 89.409 33.808C86.849 31.44 83.393 30.256 79.041 30.256C74.753 30.256 71.233 31.44 68.481 33.808C65.793 36.176 64.129 39.472 63.489 43.696ZM128.585 70V31.216H113.705V24.88H128.585V17.68C128.585 6.352 134.473 0.687994 146.249 0.687994C151.113 0.687994 155.561 1.71199 159.593 3.75999L157.769 9.904C154.185 8.112 150.537 7.216 146.825 7.216C139.273 7.216 135.497 11.056 135.497 18.736V24.88H154.697V31.216H135.497V70H128.585ZM186.384 70V31.216H167.184V24.88H193.296V63.664H212.496V70H186.384ZM188.88 13.936C187.088 13.936 185.52 13.296 184.176 12.016C182.896 10.672 182.256 9.104 182.256 7.31199C182.256 5.456 182.896 3.888 184.176 2.608C185.52 1.328 187.088 0.687994 188.88 0.687994C190.736 0.687994 192.304 1.328 193.584 2.608C194.864 3.888 195.504 5.456 195.504 7.31199C195.504 9.104 194.864 10.672 193.584 12.016C192.304 13.296 190.736 13.936 188.88 13.936ZM241.4 70L223.16 24.88H230.648L245.72 62.8L260.792 24.88H267.896L249.656 70H241.4ZM285.663 91.312C281.439 91.312 277.695 90.32 274.431 88.336L276.927 82.48C279.551 84.016 282.335 84.784 285.279 84.784C288.095 84.784 290.303 84.08 291.903 82.672C293.503 81.264 295.007 78.8 296.415 75.28L298.143 70.96L278.847 24.88H286.431L301.695 62.032L316.479 24.88H323.583L302.367 78.16C300.447 83.024 298.239 86.416 295.743 88.336C293.311 90.32 289.951 91.312 285.663 91.312Z" fill="white"/>
</svg>
